<svg xmlns="http://www.w3.org/2000/svg" width="49" height="42.001" viewBox="0 0 49 42.001">
  <g id="img-placeholder" transform="translate(-2.252 -4.502)">
    <path id="Path_48" data-name="Path 48" d="M48.8,12.833,39.776,12.4l-.525-5.884a2.258,2.258,0,0,0-2.5-2L4.381,7.168A2.232,2.232,0,0,0,2.26,9.541L4.578,35.332a2.265,2.265,0,0,0,2.5,2L8.724,37.2l-.263,5.009a2.484,2.484,0,0,0,2.45,2.57L47.017,46.5a2.509,2.509,0,0,0,2.713-2.319l1.52-28.8A2.473,2.473,0,0,0,48.8,12.833Zm-38.818.58L9.205,28.157l-1.914,2.7L5.53,11.39V11.28a1.185,1.185,0,0,1,1.05-1.028L35.127,7.911a1.056,1.056,0,0,1,1.148.864c0,.022.033.022.033.044s.033.022.033.044l.3,3.369L12.683,11.083A2.523,2.523,0,0,0,9.982,13.413ZM46.514,39.325,37.238,28.441l-4.091,3.752-7.569-8.838-13.421,14.3L13.3,15.874V15.83a1.251,1.251,0,0,1,1.3-.984l31.851,1.531a1.162,1.162,0,0,1,1.138,1.116c0,.022.033.033.033.055Z" transform="translate(0)" fill="#f0f0f0"/>
    <path id="Path_49" data-name="Path 49" d="M28.25,20.5a3.5,3.5,0,1,0-3.5-3.5A3.51,3.51,0,0,0,28.25,20.5Z" transform="translate(12.499 4.999)" fill="#f0f0f0"/>
  </g>
</svg>
